<svg xmlns="http://www.w3.org/2000/svg" xmlns:cc="http://web.resource.org/cc/" xmlns:svg="http://www.w3.org/2000/svg" xmlns:xlink="http://www.w3.org/1999/xlink" id="svg2" width="48" height="48"><defs id="defs3"><linearGradient id="linearGradient2819"><stop id="stop2821" offset="0" style="stop-color:#fafe52;stop-opacity:1"/><stop id="stop2055" offset=".675" style="stop-color:#ef9429;stop-opacity:1"/><stop id="stop2823" offset="1" style="stop-color:#e52b00;stop-opacity:1"/></linearGradient><linearGradient id="linearGradient2825" x1="19.224" x2="22.746" y1="7.32" y2="39.057" gradientTransform="scale(0.934241,1.070387)" gradientUnits="userSpaceOnUse" xlink:href="#linearGradient2819"/></defs><metadata id="metadata4"/><g id="layer1"><path id="text1291" d="M 11.501514,0.70044889 L 3.5845995,9.8069515 L 7.1943842,9.8069515 L 7.1943842,29.250565 C 7.1943803,33.458778 7.4618286,36.652879 8.0147898,38.808291 C 8.3961341,40.262350 9.1927086,41.658059 10.393966,42.992360 C 11.595209,44.309562 13.257100,45.353724 15.316400,46.191942 C 17.394740,47.013054 20.418712,47.463572 24.422902,47.463571 C 27.740620,47.463571 30.444584,47.067690 32.503898,46.315003 C 34.563154,45.545211 36.205979,44.521473 37.426332,43.238482 C 38.665682,41.955498 39.511930,40.385764 39.969589,38.521149 C 40.427171,36.656551 40.625874,33.479553 40.625914,28.963423 L 40.625914,9.8069515 L 44.399780,9.8069515 L 36.482865,0.70044889 L 28.565951,9.8069515 L 32.175736,9.8069515 L 32.175736,29.988930 C 32.175707,32.965476 32.054402,35.105119 31.806553,36.388094 C 31.558647,37.671091 30.811749,38.739167 29.591458,39.628697 C 28.371113,40.501134 26.579260,40.941351 24.176781,40.941346 C 21.812394,40.941351 19.929842,40.470413 18.557002,39.546656 C 17.203196,38.605807 16.334993,37.394424 15.972724,35.854831 C 15.762969,34.896879 15.685570,32.811870 15.685582,29.578728 L 15.685582,9.8069515 L 19.418428,9.8069515 L 11.501514,0.70044889 z" style="writing-mode:lr-tb;text-anchor:start;font-family:Arial;stroke-opacity:1;stroke-linejoin:miter;stroke-linecap:butt;stroke-width:.5;stroke:#000;fill-opacity:1;fill:url(#linearGradient2825);font-stretch:normal;font-weight:700;font-variant:normal;font-style:normal;font-size:42.266853;stroke-dasharray:none;stroke-miterlimit:4"/></g></svg>